# xmcd
#
# Track frame offsets:
# 150
# 19159
# 34976
# 53871
# 66920
# 82648
# 97537
# 114033
# 129685
# 148029
# 165720
# 183423
# 194352
# 212633
#
# Disc length: 2957 seconds
#
#
# Revision: 1
# Processed by: cddbd v1.5.2PL0 Copyright (c) Steve Scherf et al.
# Submitted via: FreeRIP 2.945 
#
DISCID=b60b8b0e
DTITLE=Various Artist - Hear Something Country Christmas
DYEAR=2007
DGENRE=Country
TTITLE0=Carrie Underwood  - Do You Hear What I Hear
TTITLE1=Brad Paisley - Winter Wonderland
TTITLE2=Alan Jackson - Let It Be Christmas
TTITLE3=Kenny Chesney - Jingle Bells
TTITLE4=Kellie Pickler - Santa Baby
TTITLE5=Blaine Larsen - Away In A Manger
TTITLE6=Keith Anderson - Please Come Home For Christmas
TTITLE7=Terri Clark - O Little Town Of Bethlehem
TTITLE8=Montgomery Gentry - Merry Christmas From The Family
TTITLE9=Phil Vassar - Let's Make A Little Christmas Tonight
TTITLE10=Sara Evans - I'll Be Home For Christmas
TTITLE11=Brooks and Dunn - Santa Claus Is Comin' To Town
TTITLE12=Martina McBride - O Come All Ye Faithful
TTITLE13=Johnny Cash - Silent Night
EXTD=
EXTT0=
EXTT1=
EXTT2=
EXTT3=
EXTT4=
EXTT5=
EXTT6=
EXTT7=
EXTT8=
EXTT9=
EXTT10=
EXTT11=
EXTT12=
EXTT13=
PLAYORDER=
